<svg width="18" height="18" viewBox="0 0 18 18" fill="none" xmlns="http://www.w3.org/2000/svg">
<path fill-rule="evenodd" clip-rule="evenodd" d="M9 2C5.14008 2 2 5.14008 2 9C2 12.8599 5.14008 16 9 16C12.8599 16 16 12.8599 16 9C16 5.14008 12.8599 2 9 2ZM10.5505 12.6657C10.1649 12.8173 8.8285 13.4555 8.0585 12.7771C7.82867 12.5752 7.71433 12.3192 7.71433 12.0082C7.71433 11.4261 7.90567 10.9186 8.25042 9.7C8.31108 9.46958 8.38517 9.17092 8.38517 8.93408C8.38517 8.52517 8.23 8.41667 7.80942 8.41667C7.60408 8.41667 7.37658 8.48958 7.17067 8.56658L7.28442 8.1005C7.7435 7.91383 8.31983 7.68633 8.81333 7.68633C9.55358 7.68633 10.0984 8.05558 10.0984 8.75792C10.0984 8.96033 10.0634 9.315 9.98992 9.56L9.56408 11.0662C9.476 11.3707 9.31675 12.0421 9.5635 12.241C9.80617 12.4376 10.3807 12.3332 10.6643 12.1996L10.5505 12.6657ZM9.847 6.66667C9.364 6.66667 8.972 6.27467 8.972 5.79167C8.972 5.30867 9.364 4.91667 9.847 4.91667C10.33 4.91667 10.722 5.30867 10.722 5.79167C10.722 6.27467 10.33 6.66667 9.847 6.66667Z" fill="#5F40AF"/>
</svg>
